# xmcd CD database file
#
# Track frame offsets:
#	150
#	27541
#	47153
#	67368
#	84957
#	106493
#	130380
#	157538
#	166880
#	201912
#	223453
#	237016
#	269070
#
# Disc length: 3818 seconds
#
# Revision: 0
# Processed by: cddbd v1.4PL0 Copyright (c) Steve Scherf et al.
# Submitted via: CDex 1.50beta8
#
DISCID=c10ee80d
DTITLE=Papa Bue's Viking Jazz Band - New Orleans Parade
DYEAR=1998
DGENRE=Jazz
TTITLE0=New Orleans parade
TTITLE1=West End blues
TTITLE2=Runnin' wild
TTITLE3=Schlafe mein Prinzchen
TTITLE4=Corrine Corrina
TTITLE5=Red River valley
TTITLE6=Davenport blues
TTITLE7=Goin' Home
TTITLE8=I found a baby
TTITLE9=Tivoly blues
TTITLE10=Camp
TTITLE11=Lord, lord, lord
TTITLE12=Wiegenlied
EXTD=YEAR: 1998
EXTT0=
EXTT1=
EXTT2=
EXTT3=
EXTT4=
EXTT5=
EXTT6=
EXTT7=
EXTT8=
EXTT9=
EXTT10=
EXTT11=
EXTT12=
PLAYORDER=
